<svg width="10" height="11" viewBox="0 0 10 11" fill="none" xmlns="http://www.w3.org/2000/svg">
<path d="M4.92676 5.5L8.03049 7.55394C8.59016 7.92431 8.92676 8.55069 8.92676 9.22181V10C8.92676 10.2761 8.7029 10.5 8.42676 10.5H1.42676C1.15062 10.5 0.926758 10.2761 0.926758 10V9.22181C0.926758 8.55069 1.26336 7.92431 1.82302 7.55394L4.92676 5.5ZM4.92676 5.5L8.03049 3.44606C8.59016 3.07569 8.92676 2.44931 8.92676 1.77819V1C8.92676 0.723857 8.7029 0.5 8.42676 0.5H1.42676C1.15062 0.5 0.926758 0.723858 0.926758 1V1.77819C0.926758 2.44931 1.26336 3.07569 1.82302 3.44606L4.92676 5.5Z" stroke="#4B4B4B" stroke-linecap="round" stroke-linejoin="round"/>
<path d="M7.76009 10.148V10.35C7.76009 10.4328 7.69293 10.5 7.61009 10.5H2.07676C1.99392 10.5 1.92676 10.4328 1.92676 10.35V10.148C1.92676 9.97784 2.01327 9.81939 2.15638 9.72739L4.41082 8.2781C4.67434 8.10869 5.0125 8.10869 5.27603 8.2781L7.53047 9.72739C7.67358 9.81939 7.76009 9.97784 7.76009 10.148Z" fill="#4B4B4B"/>
<path d="M4.92676 5.5L7.92676 3.5H1.92676L4.92676 5.5Z" fill="#4B4B4B"/>
<path d="M4.92676 8.5V4" stroke="#4B4B4B" stroke-linecap="round" stroke-linejoin="round"/>
</svg>
