<svg width="23" height="23" viewBox="0 0 23 23" fill="none" xmlns="http://www.w3.org/2000/svg">
<rect y="0.5" width="23" height="22" rx="11" fill="#004D8A"/>
<path d="M15.9996 7.33103C15.1763 6.94364 14.2848 6.66246 13.3562 6.5C13.3399 6.50023 13.3243 6.50697 13.3129 6.51875C13.2015 6.72494 13.0715 6.99362 12.9848 7.19982C11.9999 7.04995 10.9982 7.04995 10.0133 7.19982C9.92662 6.98737 9.79661 6.72494 9.67899 6.51875C9.6728 6.50625 9.65423 6.5 9.63566 6.5C8.70706 6.66246 7.8218 6.94364 6.99225 7.33103C6.98606 7.33103 6.97987 7.33728 6.97368 7.34353C5.28982 9.88662 4.82553 12.361 5.05458 14.8103C5.05458 14.8228 5.06077 14.8353 5.07315 14.8416C6.18747 15.6664 7.25845 16.1662 8.31705 16.4974C8.33562 16.5037 8.35419 16.4974 8.36038 16.4849C8.60801 16.1413 8.83087 15.7788 9.02278 15.3977C9.03516 15.3727 9.02278 15.3477 8.99802 15.3415C8.64515 15.204 8.31086 15.0415 7.98276 14.8541C7.95799 14.8416 7.95799 14.8041 7.97656 14.7854C8.04466 14.7354 8.11276 14.6791 8.18086 14.6291C8.19324 14.6166 8.21181 14.6166 8.22419 14.6229C10.3538 15.6039 12.6505 15.6039 14.7553 14.6229C14.7677 14.6166 14.7863 14.6166 14.7987 14.6291C14.8668 14.6854 14.9348 14.7354 15.0029 14.7916C15.0277 14.8103 15.0277 14.8478 14.9968 14.8603C14.6748 15.054 14.3344 15.2102 13.9815 15.3477C13.9567 15.354 13.9505 15.3852 13.9567 15.4039C14.1548 15.7851 14.3777 16.1475 14.6191 16.4912C14.6377 16.4974 14.6563 16.5037 14.6748 16.4974C15.7396 16.1662 16.8106 15.6664 17.9249 14.8416C17.9373 14.8353 17.9435 14.8228 17.9435 14.8103C18.2159 11.9798 17.4916 9.52422 16.0244 7.34353C16.0182 7.33728 16.012 7.33103 15.9996 7.33103ZM9.3447 13.317C8.70706 13.317 8.17467 12.7234 8.17467 11.9923C8.17467 11.2613 8.69468 10.6677 9.3447 10.6677C10.0009 10.6677 10.5209 11.2675 10.5147 11.9923C10.5147 12.7234 9.99472 13.317 9.3447 13.317ZM13.6596 13.317C13.0219 13.317 12.4895 12.7234 12.4895 11.9923C12.4895 11.2613 13.0096 10.6677 13.6596 10.6677C14.3158 10.6677 14.8358 11.2675 14.8296 11.9923C14.8296 12.7234 14.3158 13.317 13.6596 13.317Z" fill="#EFEFEF"/>
</svg>
