<svg width="38" height="37" viewBox="0 0 38 37" fill="none" xmlns="http://www.w3.org/2000/svg">
<path d="M32.875 18.5H27.7787C27.2547 18.5 26.9928 18.5 26.7717 18.6183C26.5506 18.7367 26.4052 18.9546 26.1146 19.3906L24.2187 22.2344C23.9281 22.6704 23.7828 22.8883 23.5617 23.0067C23.3406 23.125 23.0786 23.125 22.5546 23.125H15.4454C14.9214 23.125 14.6594 23.125 14.4383 23.0067C14.2172 22.8883 14.0719 22.6704 13.7813 22.2344L11.8854 19.3906C11.5948 18.9546 11.4494 18.7367 11.2283 18.6183C11.0072 18.5 10.7453 18.5 10.2213 18.5H5.125" stroke="#949191" stroke-width="2"/>
<path d="M13.6042 12.3333L19 7.70825M19 7.70825L24.3959 12.3333M19 7.70825L19 18.4999" stroke="#949191" stroke-width="2"/>
<path d="M8.20833 13.875L5.41789 16.6654C5.23036 16.853 5.125 17.1073 5.125 17.3725V27.2917C5.125 28.3962 6.02043 29.2917 7.125 29.2917H30.875C31.9796 29.2917 32.875 28.3962 32.875 27.2917V17.3725C32.875 17.1073 32.7696 16.853 32.5821 16.6654L29.7917 13.875" stroke="#949191" stroke-width="2" stroke-linecap="round"/>
</svg>
